2015035_C5_03_grf
version=1
nRows=21
nColumns=19
inDegrees=no
endheader
time	ground_force_1_vx	ground_force_1_vy	ground_force_1_vz	ground_force_1_px	ground_force_1_py	ground_force_1_pz	ground_force_1_mx	ground_force_1_my	ground_force_1_mz	ground_force_2_vx	ground_force_2_vy	ground_force_2_vz	ground_force_2_px	ground_force_2_py	ground_force_2_pz	ground_force_2_mx	ground_force_2_my	ground_force_2_mz
      0.40200000	      0.00000000	      0.00000000	      0.00000000	      0.00000000	      0.00000000	      0.00000000	      0.00000000	      0.00000000	      0.00000000	      5.87213365	    573.33890349	    -29.70048003	     -0.84941751	      0.00000000	      0.34229434	      0.00000000	     -0.00885306	      0.00000000
      0.40300000	      0.00000000	      0.00000000	      0.00000000	      0.00000000	      0.00000000	      0.00000000	      0.00000000	      0.00000000	      0.00000000	      6.46705949	    577.13730261	    -30.03418650	     -0.84926327	      0.00000000	      0.34232647	      0.00000000	      0.00254074	      0.00000000
      0.40400000	      0.00000000	      0.00000000	      0.00000000	      0.00000000	      0.00000000	      0.00000000	      0.00000000	      0.00000000	      0.00000000	      7.07103568	    580.97172529	    -30.37417755	     -0.84910950	      0.00000000	      0.34235757	      0.00000000	      0.01366052	      0.00000000
      0.40500000	      0.00000000	      0.00000000	      0.00000000	      0.00000000	      0.00000000	      0.00000000	      0.00000000	      0.00000000	      0.00000000	      7.68630265	    584.85060930	    -30.72208427	     -0.84895622	      0.00000000	      0.34238742	      0.00000000	      0.02444252	      0.00000000
      0.40600000	      0.00000000	      0.00000000	      0.00000000	      0.00000000	      0.00000000	      0.00000000	      0.00000000	      0.00000000	      0.00000000	      8.31057876	    588.76466006	    -31.07636943	     -0.84880328	      0.00000000	      0.34241625	      0.00000000	      0.03495934	      0.00000000
      0.40700000	      0.00000000	      0.00000000	      0.00000000	      0.00000000	      0.00000000	      0.00000000	      0.00000000	      0.00000000	      0.00000000	      8.94607895	    592.72209182	    -31.43869806	     -0.84865069	      0.00000000	      0.34244379	      0.00000000	      0.04515327	      0.00000000
      0.40800000	      0.00000000	      0.00000000	      0.00000000	      0.00000000	      0.00000000	      0.00000000	      0.00000000	      0.00000000	      0.00000000	      9.59053030	    596.71383351	    -31.80751987	     -0.84849831	      0.00000000	      0.34247030	      0.00000000	      0.05509504	     -0.00000000
      0.40900000	      0.00000000	      0.00000000	      0.00000000	      0.00000000	      0.00000000	      0.00000000	      0.00000000	      0.00000000	      0.00000000	     10.24613658	    600.74800625	    -32.18453247	     -0.84834611	      0.00000000	      0.34249545	      0.00000000	      0.06472784	      0.00000000
      0.41000000	      0.00000000	      0.00000000	      0.00000000	      0.00000000	      0.00000000	      0.00000000	      0.00000000	      0.00000000	      0.00000000	     10.91064094	    604.81570661	    -32.56815821	     -0.84819401	      0.00000000	      0.34251952	      0.00000000	      0.07411629	      0.00000000
      0.41100000	      0.00000000	      0.00000000	      0.00000000	      0.00000000	      0.00000000	      0.00000000	      0.00000000	      0.00000000	      0.00000000	     11.58623176	    608.92488807	    -32.96012599	     -0.84804194	      0.00000000	      0.34254218	      0.00000000	      0.08320356	      0.00000000
      0.41200000	      0.00000000	      0.00000000	      0.00000000	      0.00000000	      0.00000000	      0.00000000	      0.00000000	      0.00000000	      0.00000000	     12.27066200	    613.06692660	    -33.35881643	     -0.84788985	      0.00000000	      0.34256370	      0.00000000	      0.09204973	      0.00000000
      0.41300000	      0.00000000	      0.00000000	      0.00000000	      0.00000000	      0.00000000	      0.00000000	      0.00000000	      0.00000000	      0.00000000	     12.96609174	    617.24964529	    -33.76597017	     -0.84773766	      0.00000000	      0.34258374	      0.00000000	      0.10059608	      0.00000000
      0.41400000	      0.00000000	      0.00000000	      0.00000000	      0.00000000	      0.00000000	      0.00000000	      0.00000000	      0.00000000	      0.00000000	     13.67028337	    621.46455050	    -34.17992480	     -0.84758536	      0.00000000	      0.34260260	      0.00000000	      0.10890207	      0.00000000
      0.41500000	      0.00000000	      0.00000000	      0.00000000	      0.00000000	      0.00000000	      0.00000000	      0.00000000	      0.00000000	      0.00000000	     14.38537845	    625.71927905	    -34.60240401	     -0.84743285	      0.00000000	      0.34261992	      0.00000000	      0.11690979	      0.00000000
      0.41600000	      0.00000000	      0.00000000	      0.00000000	      0.00000000	      0.00000000	      0.00000000	      0.00000000	      0.00000000	      0.00000000	     15.10915998	    630.00552356	    -35.03171802	     -0.84728014	      0.00000000	      0.34263598	      0.00000000	      0.12468083	      0.00000000
      0.41700000	      0.00000000	      0.00000000	      0.00000000	      0.00000000	      0.00000000	      0.00000000	      0.00000000	      0.00000000	      0.00000000	     15.84376115	    634.33069736	    -35.46957094	     -0.84712712	      0.00000000	      0.34265041	      0.00000000	      0.13215697	      0.00000000
      0.41800000	      0.00000000	      0.00000000	      0.00000000	      0.00000000	      0.00000000	      0.00000000	      0.00000000	      0.00000000	      0.00000000	     16.58699149	    638.68656754	    -35.91424301	     -0.84697383	      0.00000000	      0.34266350	      0.00000000	      0.13939831	     -0.00000000
      0.41900000	      0.00000000	      0.00000000	      0.00000000	      0.00000000	      0.00000000	      0.00000000	      0.00000000	      0.00000000	      0.00000000	     17.34098489	    643.08028668	    -36.36740316	     -0.84682018	      0.00000000	      0.34267487	      0.00000000	      0.14634492	      0.00000000
      0.42000000	      0.00000000	      0.00000000	      0.00000000	      0.00000000	      0.00000000	      0.00000000	      0.00000000	      0.00000000	      0.00000000	     18.10357254	    647.50388265	    -36.82731465	     -0.84666622	      0.00000000	      0.34268484	     -0.00000000	      0.15305495	      0.00000000
      0.42100000	      0.00000000	      0.00000000	      0.00000000	      0.00000000	      0.00000000	      0.00000000	      0.00000000	      0.00000000	      0.00000000	     18.87689950	    651.96417272	    -37.29558773	     -0.84651187	      0.00000000	      0.34269301	     -0.00000000	      0.15946498	      0.00000000
      0.42200000	      0.00000000	      0.00000000	      0.00000000	      0.00000000	      0.00000000	      0.00000000	      0.00000000	      0.00000000	      0.00000000	     19.65881791	    656.45337105	    -37.77047135	     -0.84635721	      0.00000000	      0.34269973	      0.00000000	      0.16563025	     -0.00000000
